<?xml version="1.0" encoding="utf-8"?>
<!-- Generator: Adobe Illustrator 21.0.0, SVG Export Plug-In . SVG Version: 6.00 Build 0)  -->
<svg version="1.1" id="logo" xmlns="http://www.w3.org/2000/svg" xmlns:xlink="http://www.w3.org/1999/xlink" x="0px" y="0px"
	 viewBox="0 0 500 500" style="enable-background:new 0 0 500 500;" xml:space="preserve">
<style type="text/css">
	.st0{fill:#51B748;}
	.st1{fill:#F48020;}
</style>
<g id="ring">
	<path class="st0" d="M153.1,327c-52.4-52.4-52.4-137.1,0-189.5c52.4-52.4,137.1-52.4,189.5,0c52.4,52.4,52.4,137.1,0,189.5
		C290.2,379.3,205.5,379.3,153.1,327z M247.9,115.1c-64.6,0-117.2,52.6-117.2,117.2c0,64.6,52.6,117.2,117.2,117.2
		c64.6,0,117.2-52.6,117.2-117.2C365,167.6,312.5,115.1,247.9,115.1z"/>
</g>
<g id="icon">
	<path class="st1" d="M253.6,234c-9.2,23.5-8.6,37.6-6.5,45.2c7.1-15.4,12.1-14.9,29-33.7c-1.6-11.5-2.6-40.7-2.6-41.5
		c18.6-10.9,21.7-34.4,22.2-41.9c-2.2-2.9-4.4-4.9-5.8-6.2c-7.4,60.4-33.6,35.9-33.6,35.9c9.8-24.1-2-29.6-9.1-28.8
		c-21.8,2.6-4.1,29.5-4.1,29.5c-43.6-11.1-72.8-46.3-72.8-46.3v17.4c10.5-1.6,20.5,12.1,20.5,12.1c15.3,15.3,30,19.1,41.1,23.2
		C247.3,204.4,257.4,224.4,253.6,234z"/>
	<path class="st1" d="M170.4,230.7c0,0,37.9-4.7,40.6,51.6c0,0,1.6,31.1,26.9,44.2c0,0-7.6-22.3-2.1-40.5
		C247.1,248.6,235.2,219.1,170.4,230.7z"/>
	<path class="st1" d="M257.5,336.5c0,0,46.3,7.4,60-44.8c0,0-8.3,10.5-36.3,22.6C273.8,317.5,266,319.1,257.5,336.5z"/>
	<path class="st1" d="M291.2,149.7c0,0,58.3,39.1-28.9,117.5c-9.3,8.3-20,27.9-20,77.2c0,0,21.1-40,72.7-59.3
		C346.3,273.4,377.8,193.9,291.2,149.7z"/>
</g>
<g id="rounded-text">
	<path class="st1" d="M158,98.1l-0.7-1.3l5.6-3.2l0.7,1.3l-1.3,1l4.5,4.4l1.7,1.9l-0.8-2.3l-2.1-7.8l2.7-1.6l6,5.6l1.6,1.8l-0.8-2.4
		l-1.7-6l-1.6,0.6l-0.7-1.3l4.6-2.6l0.7,1.3l-0.9,0.8l2.7,12l-2.6,1.5l-5.8-5.3l-1.8-2.1l1.1,2.6l1.9,7.5l-2.6,1.5l-9.2-8.3
		L158,98.1z"/>
	<path class="st1" d="M183,96c-1.5-0.7-2.6-2.1-3.5-4c-0.6-1.3-0.8-2.6-0.8-3.8c0.1-1.2,0.4-2.2,1.1-3.1s1.6-1.6,2.8-2.2
		c1.5-0.7,2.9-0.8,4-0.4c1.1,0.4,2,1.3,2.7,2.7c0.4,0.9,0.7,1.7,0.8,2.3l-6.9,3.1c0.6,1.2,1.4,2.1,2.2,2.5c0.8,0.4,1.8,0.4,2.8,0
		c0.5-0.2,1.1-0.6,1.6-1c0.5-0.5,0.9-0.9,1.2-1.3l1.1,1c-0.2,0.6-0.7,1.3-1.4,2.1s-1.6,1.4-2.5,1.8C186.2,96.6,184.4,96.7,183,96z
		 M186.3,87.6l-0.4-0.9c-0.4-0.9-0.8-1.6-1.3-1.9c-0.5-0.4-1-0.4-1.6-0.2c-0.6,0.3-1,0.8-1.1,1.5c-0.1,0.7,0.1,1.8,0.7,3.2
		L186.3,87.6z"/>
	<path class="st1" d="M195,90.8l-5.3-14.7l-1.7,0.3l-0.5-1.3l4.3-2.1l0,0l0.8,0.2l5.9,16.4l1.6-0.3l0.5,1.4l-6.5,2.3l-0.5-1.4
		L195,90.8z"/>
	<path class="st1" d="M200.2,78.9l-1.8,0.5L198,78l1.7-1l-0.3-1c-0.3-1-0.3-2,0-3c0.3-1,0.8-1.9,1.6-2.6c0.8-0.8,1.7-1.3,2.8-1.6
		c0.6-0.2,1.1-0.2,1.6-0.2l1,3.2c-0.2-0.1-0.6-0.2-1.1-0.3c-0.5,0-1,0-1.5,0.2c-0.5,0.2-0.9,0.4-1,0.7c-0.2,0.3-0.1,0.8,0,1.4l0.6,2
		l2.8-0.8l0.5,1.9l-2.8,0.8l2.7,9.2l2.4-0.5l0.4,1.5l-7.8,2.3l-0.4-1.5l1.7-0.8L200.2,78.9z"/>
	<path class="st1" d="M211.3,80.3c1.2-1,3-1.8,5.4-2.3l-0.1-0.5c-0.1-0.6-0.3-1-0.5-1.4s-0.5-0.5-0.9-0.6c-0.4-0.1-0.9-0.1-1.5,0.1
		c-0.8,0.2-1.5,0.4-2.1,0.7c-0.6,0.3-1.2,0.7-1.7,1.1l-1.1-1.5c0.2-0.3,0.6-0.6,1.1-1c0.5-0.4,1.2-0.8,1.9-1.2s1.5-0.7,2.4-0.8
		c1.2-0.3,2.2-0.3,3-0.1c0.8,0.2,1.4,0.6,1.8,1.2c0.5,0.6,0.8,1.5,1.1,2.7l1.5,7l1.2-0.3l0.3,1.4c-0.3,0.2-0.8,0.3-1.4,0.5
		c-0.6,0.2-1.1,0.4-1.6,0.5c-0.6,0.1-1,0.1-1.2,0c-0.2-0.1-0.4-0.5-0.5-1l-0.1-0.6c-0.3,0.6-0.7,1.1-1.3,1.6s-1.3,0.9-2.2,1
		c-1.1,0.2-2.1,0.1-3-0.4c-0.9-0.5-1.5-1.4-1.7-2.6C209.7,82.5,210.1,81.3,211.3,80.3z M217,84.1c0.3-0.3,0.6-0.5,0.8-0.8l-0.8-3.8
		c-1.3,0.3-2.1,0.7-2.7,1.3c-0.5,0.6-0.7,1.2-0.6,1.9c0.2,0.7,0.4,1.2,0.8,1.6c0.4,0.3,0.9,0.4,1.5,0.3
		C216.3,84.5,216.7,84.4,217,84.1z"/>
	<path class="st1" d="M223.9,83.4l1.4-0.4l-1.2-9l-1.5-0.3l-0.2-1.8l3.8-1l0.1,0l0.7,0.4l0.1,0.5l0.2,2l0.1,0
		c0.1-0.4,0.3-0.8,0.6-1.4c0.3-0.5,0.8-1,1.4-1.4c0.6-0.4,1.2-0.7,1.9-0.8c0.4-0.1,0.7,0,1,0l0.5,4c-0.6-0.3-1.2-0.4-2-0.3
		c-1.1,0.1-2,0.5-2.7,1.1l1,7.5l2.7-0.1l0.2,1.5l-7.9,1L223.9,83.4z"/>
	<path class="st1" d="M236.4,81.9c-1.1-1.2-1.7-2.9-1.8-5c-0.1-1.5,0.1-2.7,0.6-3.8s1.2-1.9,2.2-2.5c1-0.6,2.1-0.9,3.4-1
		c1.7-0.1,3,0.3,3.9,1.1c0.9,0.8,1.4,2,1.5,3.5c0,1,0,1.8-0.1,2.5l-7.6,0.4c0.1,1.4,0.5,2.4,1.2,3.1c0.6,0.7,1.5,1,2.6,1
		c0.6,0,1.2-0.2,1.8-0.4c0.6-0.2,1.2-0.5,1.6-0.8l0.7,1.4c-0.4,0.5-1.1,1-2,1.4s-2,0.7-3,0.8C239.1,83.6,237.5,83.1,236.4,81.9z
		 M242.5,75.3l0-1c0-1-0.2-1.8-0.5-2.3c-0.3-0.5-0.8-0.8-1.5-0.7c-0.7,0-1.2,0.4-1.6,1c-0.4,0.6-0.5,1.7-0.5,3.3L242.5,75.3z"/>
	<path class="st1" d="M257.1,81.4c0.1,0.2,0.4,0.4,0.8,0.6c0.4,0.2,0.8,0.3,1.3,0.3c0.7,0.1,1.2-0.1,1.6-0.3
		c0.4-0.3,0.6-0.6,0.6-1.1c0-0.5-0.2-0.9-0.6-1.2c-0.4-0.3-1.1-0.8-2.1-1.3l-0.9-0.5c-1-0.5-1.8-1.2-2.2-1.9
		c-0.5-0.7-0.7-1.6-0.6-2.6c0.1-0.7,0.3-1.4,0.8-1.9c0.5-0.5,1.1-0.9,2-1.2c0.8-0.3,1.8-0.4,2.9-0.3c0.7,0.1,1.4,0.2,2,0.3
		c0.6,0.1,1.1,0.3,1.7,0.5c0.4,0.1,0.6,0.2,0.8,0.3l-0.2,3.2l-2.1-0.2l-0.5-1.9c-0.1-0.2-0.3-0.3-0.6-0.5c-0.3-0.1-0.7-0.2-1.1-0.3
		c-0.6,0-1.1,0.1-1.4,0.3c-0.4,0.2-0.6,0.6-0.6,1c0,0.4,0.1,0.7,0.3,1c0.2,0.3,0.4,0.5,0.8,0.7s0.8,0.5,1.3,0.8l0.5,0.3
		c0.8,0.4,1.5,0.8,2,1.2c0.5,0.4,1,0.9,1.3,1.4c0.3,0.6,0.5,1.2,0.4,2c-0.1,1.2-0.6,2.1-1.6,2.8c-1,0.7-2.4,1-4.2,0.8
		c-0.8-0.1-1.6-0.2-2.3-0.4s-1.4-0.4-2.1-0.7l-0.7-0.2l0.2-3.2l2.2,0.2L257.1,81.4z"/>
	<path class="st1" d="M268.6,73.8c0.8-1,1.7-1.6,2.8-2c1.1-0.4,2.2-0.4,3.4-0.2c2,0.3,3.4,1.2,4.4,2.6c0.9,1.4,1.2,3.1,0.9,5.3
		c-0.3,1.5-0.8,2.8-1.5,3.7c-0.8,1-1.7,1.6-2.8,1.9c-1.1,0.3-2.2,0.4-3.5,0.2c-2-0.3-3.4-1.2-4.3-2.6c-0.9-1.4-1.2-3.1-0.9-5.3
		C267.4,76,267.9,74.8,268.6,73.8z M274.8,82.8c0.5-0.8,0.9-2,1.2-3.8c0.3-1.8,0.3-3.2,0.1-4.2c-0.2-1-0.8-1.5-1.6-1.7
		c-0.8-0.1-1.5,0.2-2,0.9c-0.5,0.8-1,2-1.3,3.7c-0.3,1.8-0.3,3.2-0.1,4.2c0.2,1,0.8,1.5,1.7,1.7C273.6,83.9,274.2,83.6,274.8,82.8z"
		/>
	<path class="st1" d="M283.5,76.7c0.8-0.9,1.8-1.5,3-1.8c1.2-0.3,2.4-0.3,3.7,0c0.7,0.2,1.2,0.4,1.6,0.6c0.4,0.2,0.9,0.5,1.4,0.8
		c0.1,0.1,0.2,0.1,0.3,0.2c0.1,0.1,0.3,0.1,0.4,0.2l-1.2,4.1l-2.3-0.6l0.1-2.8c0-0.2-0.1-0.4-0.3-0.5s-0.4-0.3-0.8-0.3
		c-1.6-0.4-2.8,0.9-3.6,4c-0.4,1.6-0.5,2.9-0.2,3.9s0.9,1.6,1.8,1.8c1.1,0.3,2.3,0.3,3.4-0.1l0.2,1.5c-0.5,0.3-1.2,0.6-2.1,0.7
		c-0.9,0.2-1.9,0.1-2.9-0.1c-2-0.5-3.4-1.5-4.1-3s-0.8-3.2-0.3-5.2C282.1,78.8,282.7,77.6,283.5,76.7z"/>
	<path class="st1" d="M294.2,88.5l2.9-8.6l-1.4-0.9l0.6-1.7l4.6,1l0,0l0.5,0.7l-3.6,10.8l1.4,0.7l-0.5,1.5l-6.5-2.2l0.5-1.5
		L294.2,88.5z M298.7,75c-0.2-0.5-0.3-1-0.1-1.5c0.2-0.6,0.6-1.1,1.1-1.3s1.1-0.3,1.8-0.1c0.6,0.2,1.1,0.5,1.3,1
		c0.2,0.5,0.3,1,0.1,1.5c-0.2,0.6-0.6,1.1-1.1,1.3c-0.5,0.3-1.1,0.3-1.8,0.1l0,0C299.3,75.8,298.9,75.4,298.7,75z"/>
	<path class="st1" d="M301.8,91.3c-0.5-1.5-0.3-3.3,0.5-5.3c0.6-1.3,1.3-2.4,2.2-3.2c0.9-0.8,1.9-1.2,3-1.4c1.1-0.1,2.3,0,3.5,0.5
		c1.5,0.6,2.6,1.5,3,2.6c0.5,1.1,0.5,2.4-0.1,3.8c-0.4,0.9-0.8,1.7-1.1,2.2l-7-2.9c-0.5,1.3-0.6,2.4-0.3,3.3s0.9,1.6,1.9,2
		c0.5,0.2,1.2,0.4,1.8,0.4c0.7,0.1,1.3,0,1.8-0.1l0,1.5c-0.6,0.3-1.4,0.4-2.4,0.4c-1.1,0-2.1-0.2-3-0.6
		C303.6,94.1,302.3,92.9,301.8,91.3z M310.2,88l0.4-0.9c0.4-0.9,0.5-1.7,0.5-2.3c-0.1-0.6-0.4-1-1-1.3c-0.7-0.3-1.3-0.2-1.8,0.2
		c-0.6,0.4-1.2,1.3-1.8,2.7L310.2,88z"/>
	<path class="st1" d="M313.7,97.7c-0.2-0.7-0.1-1.4,0.3-2.4l3.9-7.7l-1.3-0.7l0.6-1.2l0.5,0c0.4,0.1,0.8,0.1,1.1,0.1
		c0.4-0.1,0.8-0.3,1.2-0.7c0.3-0.3,0.9-0.9,1.8-1.8l1.9,1l-1.5,3.2l3.1,1.6l-0.9,1.8l-3.1-1.6l-2.9,5.8c-0.4,0.8-0.7,1.4-0.8,1.7
		c-0.1,0.3-0.1,0.6-0.1,0.7c0.1,0.2,0.3,0.3,0.6,0.5c0.6,0.3,1.3,0.5,2.1,0.6l-0.2,1.5c-0.6,0.1-1.3,0.1-2.2,0
		c-0.9-0.1-1.7-0.4-2.5-0.8C314.5,98.9,313.9,98.4,313.7,97.7z"/>
	<path class="st1" d="M318.4,107.4c-0.3-0.2-0.5-0.4-0.6-0.5l1.5-2.4c0,0.1,0.2,0.3,0.5,0.6c0.3,0.2,0.5,0.4,0.8,0.6
		c0.7,0.4,1.4,0.5,2.1,0.3c0.7-0.2,1.5-0.7,2.5-1.4l-1.2-0.7l2.1-12.2l-0.8-0.8l0.8-1.3l6,3.6l-0.8,1.3l-1.6-0.6l-1.6,6.6l-0.6,2.6
		l1.9-1.9l4.9-4.6l-1.1-1l0.8-1.3l4.6,2.8l-0.8,1.3l-1.1-0.4c-1.8,1.5-3.8,3.2-6,5.1c-2.2,1.8-3.4,2.8-3.7,3c-1.1,0.9-2.1,1.5-2.9,2
		s-1.6,0.7-2.4,0.7c-0.8,0-1.5-0.2-2.3-0.7C319,107.8,318.7,107.6,318.4,107.4z"/>
</g>
<g id="srijan">
	<path class="st0" d="M168.9,431.5c-1.8-0.4-3.8-0.8-5.8-1.4c-1.3-0.4-2.3-0.6-2.9-0.7l0.5-11.2h5.5l1.4,7.6c0.5,0.6,1.3,1,2.5,1.5
		c1.2,0.4,2.6,0.6,4.3,0.6c2.5,0,4.4-0.5,5.7-1.7c1.3-1.1,1.9-2.6,1.9-4.6c0-1.3-0.4-2.5-1.2-3.5c-0.8-1-1.9-1.9-3.2-2.7
		c-1.4-0.8-3.3-1.8-5.7-2.9c-3.2-1.5-6-3.4-8.1-5.5c-2.2-2.2-3.3-5.1-3.3-8.7c0-2.2,0.6-4.3,1.7-6.1c1.2-1.8,2.9-3.3,5.3-4.4
		c2.4-1.1,5.3-1.7,8.7-1.7c2.1,0,3.9,0.1,5.5,0.4c1.6,0.3,3.2,0.7,5,1.1c1,0.3,1.8,0.5,2.3,0.5l-0.4,10.6h-5.3l-1.3-7.4
		c-0.3-0.4-0.9-0.7-2-1c-1-0.3-2.2-0.5-3.4-0.5c-2.3,0-4,0.5-5.1,1.6c-1.1,1-1.7,2.4-1.7,4.1c0,1.4,0.5,2.7,1.4,3.8
		c0.9,1.1,2,2,3.3,2.8c1.3,0.8,3.3,1.8,6,3.1c3.4,1.6,6.1,3.4,8.2,5.3c2.1,1.9,3.2,4.5,3.2,7.8c0,2.2-0.5,4.3-1.6,6.4
		s-2.9,3.7-5.4,5.1c-2.5,1.3-5.9,2-9.9,2C172.8,432,170.8,431.8,168.9,431.5z"/>
	<path class="st0" d="M196,427.5l3.7-0.5v-22.8l-3.7-1.1v-4.6l9.8-1.3h0.2l1.7,1.3v1.4l-0.2,5h0.2c0.3-0.9,0.9-2,1.9-3.2
		c1-1.2,2.3-2.3,3.8-3.1c1.6-0.9,3.2-1.4,5-1.4c1,0,1.8,0.1,2.4,0.4v10c-1.3-1-2.9-1.4-4.8-1.4c-2.7,0-5,0.6-7,1.9V427l6.7,0.5v3.8
		H196V427.5z"/>
	<path class="st0" d="M228.3,426.9v-22.7l-4.1-1.1v-4.4l11.8-1.4h0.1l1.7,1.3V427l3.8,0.5v3.8h-17.2v-3.8L228.3,426.9z M228.2,391.2
		c-0.9-0.9-1.4-2.1-1.4-3.4c0-1.6,0.5-2.9,1.5-4c1-1.1,2.4-1.6,4.1-1.6c1.6,0,2.9,0.5,3.8,1.4c0.9,0.9,1.4,2,1.4,3.4
		c0,1.6-0.5,3-1.5,4.1c-1,1.1-2.4,1.6-4.3,1.6h-0.1C230.4,392.6,229.2,392.1,228.2,391.2z"/>
	<path class="st0" d="M245.3,398.6l11.6-1.4h0.1l1.7,1.3v32.3c0,3.1-0.7,5.8-2,8.1c-1.3,2.3-2.9,4-4.8,5.2c-1.9,1.2-3.8,1.8-5.6,1.9
		c-2,0-3.2-0.1-3.7-0.2l-0.4-3.7c0.3,0,0.7,0,1.3-0.1c0.6-0.1,1.1-0.3,1.7-0.6c1.4-0.7,2.5-2,3.1-4.1c0.6-2,1-4.8,1-8.3v-24.6
		l-4.1-1.2V398.6z M248.8,391.2c-0.9-0.9-1.4-2.1-1.4-3.4c0-1.6,0.5-2.9,1.5-4c1-1.1,2.4-1.6,4.1-1.6c1.6,0,2.9,0.5,3.8,1.4
		c0.9,0.9,1.4,2,1.4,3.4c0,1.6-0.5,3-1.5,4.1c-1,1.1-2.4,1.6-4.3,1.6h-0.1C251,392.6,249.8,392.1,248.8,391.2z"/>
	<path class="st0" d="M270.2,413.7c3.4-1.9,8.2-2.9,14.4-2.9v-1.2c0-1.5-0.2-2.7-0.5-3.6c-0.3-0.9-0.9-1.5-1.8-1.9
		c-0.9-0.4-2.1-0.6-3.8-0.6c-2,0-3.9,0.3-5.5,0.8c-1.6,0.5-3.2,1.1-4.8,1.8l-2-4.2c0.6-0.5,1.7-1.1,3.2-1.9c1.5-0.7,3.2-1.4,5.3-1.9
		c2-0.6,4.1-0.8,6.3-0.8c3.2,0,5.6,0.4,7.4,1.2c1.8,0.8,3.1,2.1,3.9,3.9c0.8,1.8,1.2,4.2,1.2,7.2v18h3.1v3.7
		c-0.9,0.2-2.1,0.4-3.7,0.6c-1.6,0.2-3,0.3-4.1,0.3c-1.5,0-2.5-0.2-2.9-0.7c-0.5-0.4-0.7-1.3-0.7-2.6v-1.4c-1,1.2-2.4,2.3-4,3.2
		c-1.7,1-3.7,1.4-5.8,1.4c-2.9,0-5.3-0.9-7.2-2.6c-1.9-1.8-2.9-4.2-2.9-7.4C265.1,418.3,266.8,415.6,270.2,413.7z M282.2,426
		c0.9-0.5,1.7-1,2.4-1.6v-9.6c-3.2,0-5.6,0.6-7.2,1.7s-2.4,2.6-2.4,4.4c0,1.8,0.4,3.3,1.2,4.3c0.8,1,2,1.5,3.4,1.5
		C280.4,426.7,281.2,426.4,282.2,426z"/>
	<path class="st0" d="M303.4,404.2l-3.6-1.1v-4.6l10.6-1.3h0.2l1.6,1.3v2.2l-0.1,1.4c1.4-1.3,3.2-2.5,5.4-3.4
		c2.2-0.9,4.4-1.4,6.8-1.4c2.4,0,4.3,0.4,5.7,1.3c1.4,0.9,2.4,2.3,3,4.2c0.6,1.9,0.9,4.5,0.9,7.7V427l3.4,0.5v3.9h-16.1v-3.8
		l3.1-0.5v-16.4c0-2.9-0.3-4.9-1-6c-0.6-1.1-1.9-1.7-3.7-1.7c-2.1,0-4.2,0.9-6.5,2.6v21.4l3.4,0.6v3.8H300v-3.8l3.4-0.6V404.2z"/>
</g>
</svg>
